<?xml version="1.0" standalone="no"?>
<!DOCTYPE svg PUBLIC "-//W3C//DTD SVG 20010904//EN"
 "http://www.w3.org/TR/2001/REC-SVG-20010904/DTD/svg10.dtd">
<svg version="1.0" xmlns="http://www.w3.org/2000/svg"
 width="260.000000pt" height="260.000000pt" viewBox="0 0 260.000000 260.000000"
 preserveAspectRatio="xMidYMid meet">
<metadata>
Created by potrace 1.11, written by Peter Selinger 2001-2013
</metadata>
<g transform="translate(0.000000,260.000000) scale(0.100000,-0.100000)"
fill="#000000" stroke="none">
<path d="M1680 2366 c-213 -55 -384 -213 -451 -418 -21 -63 -24 -92 -23 -203
0 -114 4 -138 26 -197 36 -96 84 -172 151 -239 118 -119 266 -181 432 -183
120 -1 183 13 294 66 67 32 101 56 160 117 130 130 185 264 184 451 0 88 -4
118 -27 185 -67 194 -201 331 -394 402 -84 32 -265 41 -352 19z m391 -174 c83
-33 122 -84 135 -180 10 -77 -11 -147 -58 -192 -35 -35 -37 -39 -19 -45 31 -9
89 -80 100 -122 14 -49 14 -147 0 -196 -13 -46 -60 -102 -108 -126 -64 -33
-137 -41 -356 -41 l-215 0 0 466 0 466 233 -4 c209 -4 238 -7 288 -26z"/>
<path d="M1777 2053 c-4 -3 -7 -48 -7 -100 l0 -93 75 0 c41 0 85 5 98 11 30
13 47 48 47 92 0 44 -23 74 -68 87 -42 11 -135 14 -145 3z"/>
<path d="M1775 1688 c-3 -8 -4 -63 -3 -124 l3 -109 87 0 c103 1 134 17 157 82
13 35 13 46 0 78 -23 60 -55 78 -154 83 -67 4 -86 2 -90 -10z"/>
<path d="M360 1755 l0 -465 169 0 c208 0 307 13 386 49 78 36 120 72 166 144
45 69 69 164 69 271 0 265 -138 428 -385 456 -49 5 -161 10 -247 10 l-158 0 0
-465z m437 249 c66 -32 106 -88 124 -173 23 -113 -15 -253 -84 -305 -43 -32
-127 -56 -199 -56 l-58 0 0 278 c0 153 3 282 8 286 16 17 153 -2 209 -30z"/>
<path d="M480 981 c-78 -25 -137 -79 -171 -156 -26 -58 -31 -190 -11 -262 18
-62 70 -124 132 -158 48 -25 66 -29 135 -30 54 0 95 6 128 18 l47 19 0 59 c0
63 -4 67 -36 45 -32 -23 -110 -39 -149 -32 -46 9 -101 58 -116 104 -7 20 -12
65 -12 100 1 160 117 234 261 167 l52 -24 0 60 c0 60 0 60 -37 76 -42 19 -182
27 -223 14z"/>
<path d="M2045 975 c-58 -22 -106 -65 -139 -125 -38 -69 -47 -196 -22 -284 22
-73 87 -147 154 -173 61 -23 191 -23 245 1 37 16 37 17 37 75 l0 59 -57 -24
c-73 -30 -107 -30 -163 -1 -63 32 -85 79 -85 182 0 92 18 134 76 173 29 21 43
23 96 19 38 -3 76 -13 98 -25 l35 -21 0 59 c0 57 -1 60 -32 77 -45 23 -189 28
-243 8z"/>
<path d="M892 680 l-100 -300 68 0 69 0 17 55 18 55 110 0 111 0 15 -52 15
-53 68 -3 c50 -2 67 0 67 10 0 7 -43 142 -96 300 l-96 288 -83 0 -83 0 -100
-300z m221 34 l34 -109 -70 -3 c-38 -2 -71 -1 -73 1 -2 1 13 54 32 116 19 62
37 111 40 109 2 -3 19 -54 37 -114z"/>
<path d="M1430 680 l0 -300 190 0 190 0 0 60 0 60 -120 0 -120 0 0 240 0 240
-70 0 -70 0 0 -300z"/>
</g>
</svg>
